<svg width="105" height="24" viewBox="0 0 105 24" fill="none" xmlns="http://www.w3.org/2000/svg">
<path d="M2 8.39995C1.99975 6.95029 2.58239 5.5614 3.61681 4.54578C4.65124 3.53016 6.05058 2.97311 7.5 2.99995C9.21732 2.99083 10.856 3.71913 12 4.99995C13.144 3.71913 14.7827 2.99083 16.5 2.99995C17.9494 2.97311 19.3488 3.53016 20.3832 4.54578C21.4176 5.5614 22.0002 6.95029 22 8.39995C22 13.756 15.621 17.8 12 21C8.387 17.773 2 13.76 2 8.39995Z" fill="#C9C9C9"/>
<path d="M41.3267 10C40.9936 8.12571 39.4624 6.67898 37.2947 6.67898C34.7244 6.67898 32.8949 8.7223 32.8949 11.9091C32.8949 15.0959 34.7244 17.1392 37.2947 17.1392C39.4624 17.1392 40.9936 15.6875 41.3267 13.8182H40.392C40.1087 15.2152 38.8906 16.2642 37.2947 16.2642C35.3658 16.2642 33.7947 14.7379 33.7947 11.9091C33.7947 9.0902 35.3658 7.55398 37.2947 7.55398C38.8906 7.55398 40.1087 8.60795 40.392 10H41.3267ZM46.2946 17.1591C48.2733 17.1591 49.6554 15.5433 49.6554 13.2166C49.6554 10.875 48.2733 9.25923 46.2946 9.25923C44.3159 9.25923 42.9338 10.875 42.9338 13.2166C42.9338 15.5433 44.3159 17.1591 46.2946 17.1591ZM46.2946 16.3487C44.7086 16.3487 43.8237 14.9268 43.8237 13.2166C43.8237 11.5064 44.7086 10.0646 46.2946 10.0646C47.8805 10.0646 48.7654 11.5064 48.7654 13.2166C48.7654 14.9268 47.8805 16.3487 46.2946 16.3487ZM51.8304 9.36364H50.8063L53.2324 13.1818L50.8063 17H51.8304L53.7992 13.848L55.7679 17H56.7971L54.3411 13.1818L56.7971 9.36364H55.7679L53.7992 12.62L51.8304 9.36364ZM58.6378 19.8636H59.5277V15.5831H59.6072C59.9105 16.2841 60.5668 17.1591 61.9538 17.1591C63.8232 17.1591 65.0959 15.5682 65.0959 13.2017C65.0959 10.8452 63.8281 9.25923 61.9389 9.25923C60.5369 9.25923 59.9155 10.1342 59.6072 10.8203H59.4979V9.36364H58.6378V19.8636ZM59.5128 13.1868C59.5128 11.3572 60.353 10.0646 61.8445 10.0646C63.3807 10.0646 64.206 11.4268 64.206 13.1868C64.206 14.9666 63.3658 16.3487 61.8445 16.3487C60.3679 16.3487 59.5128 15.0312 59.5128 13.1868ZM69.1664 17.174C70.4391 17.174 71.2147 16.468 71.5328 15.7919H71.5875V17H72.4725V11.8146C72.4725 9.76633 70.9313 9.25923 69.763 9.25923C68.5946 9.25923 67.3915 9.72159 66.8745 10.9695L67.7147 11.2727C67.9931 10.6165 68.6841 10.0547 69.7878 10.0547C70.9462 10.0547 71.5875 10.6911 71.5875 11.7351V11.9141C71.5875 12.4908 70.8716 12.5007 69.589 12.6598C67.8638 12.8736 66.6557 13.3558 66.6557 14.8672C66.6557 16.3388 67.7793 17.174 69.1664 17.174ZM69.2857 16.3636C68.2864 16.3636 67.5407 15.8317 67.5407 14.907C67.5407 13.9822 68.2963 13.5945 69.589 13.4354C70.2154 13.3608 71.329 13.2216 71.5875 12.968V14.0717C71.5875 15.3246 70.6976 16.3636 69.2857 16.3636ZM75.7115 9.36364H74.8265V17H75.7115V13.6044H79.7484V17H80.6333V9.36364H79.7484V12.7692H75.7115V9.36364ZM83.8736 15.7422V9.36364H82.9886V17H84.0625L88.0795 10.6214V17H88.9645V9.36364H87.9055L83.8736 15.7422ZM90.2322 10.1989H92.7876V17H93.6726V10.1989H96.1982V9.36364H90.2322V10.1989ZM98.9537 12.3118V9.36364H98.0687V17H101.037C102.752 17 103.726 16.0504 103.726 14.6335C103.726 13.2067 102.757 12.3118 101.037 12.3118H98.9537ZM98.9537 13.147H101.037C102.116 13.147 102.841 13.7038 102.841 14.6733C102.841 15.6328 102.116 16.1648 101.037 16.1648H98.9537V13.147Z" fill="#303030"/>
</svg>
