<svg width="110" height="20" viewBox="0 0 110 20" fill="none" xmlns="http://www.w3.org/2000/svg">
<path d="M36.6158 4.81818H29.2777V15H30.2074V5.65341H35.6911V15H36.6158V4.81818ZM42.0348 15.1591C44.0135 15.1591 45.3956 13.5433 45.3956 11.2166C45.3956 8.875 44.0135 7.25923 42.0348 7.25923C40.0561 7.25923 38.674 8.875 38.674 11.2166C38.674 13.5433 40.0561 15.1591 42.0348 15.1591ZM42.0348 14.3487C40.4489 14.3487 39.5639 12.9268 39.5639 11.2166C39.5639 9.50639 40.4489 8.06463 42.0348 8.06463C43.6207 8.06463 44.5057 9.50639 44.5057 11.2166C44.5057 12.9268 43.6207 14.3487 42.0348 14.3487ZM46.4334 17.1726H47.3233V15H53.2843V17.1726H54.1692V14.1648H53.0357V7.36364H48.5165L48.2381 10.5604C48.0641 12.5391 47.7459 13.424 47.0946 14.1648H46.4334V17.1726ZM48.1138 14.1648C48.7054 13.3544 48.954 12.1612 49.1131 10.5604L49.3418 8.19886H52.1507V14.1648H48.1138ZM58.9432 15.1591C60.4744 15.1591 61.5036 14.3288 61.8516 13.3693L61.0114 13.0959C60.718 13.782 60.027 14.3487 58.9432 14.3487C57.3821 14.3487 56.3928 13.2102 56.353 11.4453H62.0405V11.0078C62.0405 8.45739 60.4645 7.25923 58.8089 7.25923C56.8303 7.25923 55.4631 8.91477 55.4631 11.2266C55.4631 13.5433 56.8054 15.1591 58.9432 15.1591ZM56.358 10.6648C56.4524 9.2429 57.4119 8.06463 58.8089 8.06463C60.1761 8.06463 61.1357 9.19318 61.1357 10.6648H56.358ZM63.2399 15H63.5581C65.2733 15 65.5865 13.7223 65.7058 11.2365L65.85 8.19886H68.9721V15H69.862V7.36364H65.0098L64.8457 10.9382C64.7314 13.4688 64.5673 14.1648 63.4785 14.1648H63.2399V15ZM73.0923 13.7422V7.36364H72.2074V15H73.2812L77.2983 8.62145V15H78.1832V7.36364H77.1243L73.0923 13.7422ZM79.451 8.19886H82.0064V15H82.8913V8.19886H85.4169V7.36364H79.451V8.19886ZM88.1724 10.3118V7.36364H87.2875V15H90.2555C91.9707 15 92.9451 14.0504 92.9451 12.6335C92.9451 11.2067 91.9757 10.3118 90.2555 10.3118H88.1724ZM88.1724 11.147H90.2555C91.3343 11.147 92.0602 11.7038 92.0602 12.6733C92.0602 13.6328 91.3343 14.1648 90.2555 14.1648H88.1724V11.147ZM97.872 15.1591C99.4629 15.1591 100.581 14.1548 100.785 12.7727H99.8904C99.6866 13.7472 98.8862 14.3487 97.872 14.3487C96.3755 14.3487 95.3862 13.0462 95.3862 11.1868C95.3862 9.33736 96.4054 8.06463 97.872 8.06463C98.9608 8.06463 99.6966 8.76562 99.8855 9.63068H100.78C100.572 8.21378 99.3883 7.25923 97.8571 7.25923C95.8585 7.25923 94.4963 8.91974 94.4963 11.2166C94.4963 13.4936 95.8187 15.1591 97.872 15.1591ZM107.276 15H108.121V7.36364H105.173C103.522 7.36364 102.612 8.1392 102.612 9.53622C102.612 10.6151 103.134 11.326 104.099 11.5945L102.13 15H103.1L104.999 11.7138C105.029 11.7138 105.053 11.7138 105.078 11.7138H107.276V15ZM107.276 10.8786H105.078C104.044 10.8786 103.502 10.4311 103.502 9.53622C103.502 8.64134 104.074 8.18892 105.173 8.18395H107.276V10.8786Z" fill="#303030"/>
<path fill-rule="evenodd" clip-rule="evenodd" d="M11.6667 4.58329C11.6667 2.97246 12.9725 1.66663 14.5833 1.66663C16.1942 1.66663 17.5 2.97246 17.5 4.58329C17.5 6.19411 16.1942 7.49996 14.5833 7.49996C13.769 7.49996 13.0327 7.16626 12.5036 6.62816L8.22756 9.21884C8.29649 9.46745 8.33333 9.7294 8.33333 9.99996C8.33333 10.243 8.3036 10.4791 8.24758 10.7049L12.6009 13.2773C13.1212 12.7949 13.8178 12.5 14.5833 12.5C16.1942 12.5 17.5 13.8058 17.5 15.4166C17.5 17.0274 16.1942 18.3333 14.5833 18.3333C12.9725 18.3333 11.6667 17.0274 11.6667 15.4166C11.6667 15.1736 11.6964 14.9375 11.7524 14.7118L7.39908 12.1394C6.87875 12.6217 6.18214 12.9166 5.41667 12.9166C3.80585 12.9166 2.5 11.6108 2.5 9.99996C2.5 8.38914 3.80585 7.08329 5.41667 7.08329C6.15373 7.08329 6.82695 7.3567 7.34042 7.80763L11.7222 5.15284C11.6858 4.96864 11.6667 4.7782 11.6667 4.58329ZM14.5833 3.33329C13.893 3.33329 13.3333 3.89294 13.3333 4.58329C13.3333 5.27364 13.893 5.83329 14.5833 5.83329C15.2737 5.83329 15.8333 5.27364 15.8333 4.58329C15.8333 3.89294 15.2737 3.33329 14.5833 3.33329ZM5.41667 8.74996C4.72632 8.74996 4.16667 9.30961 4.16667 9.99996C4.16667 10.6903 4.72632 11.25 5.41667 11.25C6.10701 11.25 6.66667 10.6903 6.66667 9.99996C6.66667 9.30961 6.10701 8.74996 5.41667 8.74996ZM14.5833 14.1666C13.893 14.1666 13.3333 14.7263 13.3333 15.4166C13.3333 16.107 13.893 16.6666 14.5833 16.6666C15.2737 16.6666 15.8333 16.107 15.8333 15.4166C15.8333 14.7263 15.2737 14.1666 14.5833 14.1666Z" fill="#C9C9C9"/>
</svg>
